<svg xmlns="http://www.w3.org/2000/svg" xmlns:xlink="http://www.w3.org/1999/xlink" width="500" zoomAndPan="magnify" viewBox="0 0 375 374.999991" height="500" preserveAspectRatio="xMidYMid meet" version="1.0"><defs><g/><clipPath id="3687020237"><path d="M 182 100.644531 L 210 100.644531 L 210 122 L 182 122 Z M 182 100.644531 " clip-rule="nonzero"/></clipPath><clipPath id="6a142e53cc"><path d="M 250 106 L 263.351562 106 L 263.351562 122 L 250 122 Z M 250 106 " clip-rule="nonzero"/></clipPath><clipPath id="1627cd8af0"><path d="M 113.351562 111 L 256 111 L 256 188.394531 L 113.351562 188.394531 Z M 113.351562 111 " clip-rule="nonzero"/></clipPath><clipPath id="8008f5a695"><path d="M 113.351562 111 L 257 111 L 257 188.394531 L 113.351562 188.394531 Z M 113.351562 111 " clip-rule="nonzero"/></clipPath></defs><path fill="#2d323c" d="M 141.816406 121.398438 C 144.191406 121.886719 146.433594 123.042969 148.253906 124.800781 C 148.304688 124.84375 148.347656 124.894531 148.382812 124.957031 C 148.585938 125.289062 148.484375 125.726562 148.152344 125.933594 C 141.03125 130.285156 136.328125 136.679688 134.054688 145.128906 C 134.039062 145.1875 134.019531 145.257812 133.984375 145.316406 C 133.796875 145.660156 133.363281 145.789062 133.019531 145.597656 C 130.789062 144.390625 129.019531 142.582031 127.839844 140.441406 C 126.667969 138.304688 126.085938 135.839844 126.25 133.300781 C 126.410156 130.765625 127.308594 128.390625 128.746094 126.429688 C 130.191406 124.464844 132.183594 122.90625 134.550781 121.988281 C 136.917969 121.082031 139.441406 120.902344 141.824219 121.390625 Z M 141.816406 121.398438 " fill-opacity="1" fill-rule="evenodd"/><g clip-path="url(#3687020237)"><path fill="#2d323c" d="M 182.472656 112.519531 C 184.945312 106.101562 188.65625 102.519531 192.535156 101.21875 C 194.683594 100.5 196.871094 100.472656 198.9375 101.046875 C 200.992188 101.621094 202.921875 102.785156 204.554688 104.449219 C 207.984375 107.945312 210.121094 113.660156 209.359375 120.714844 C 209.316406 121.109375 208.96875 121.390625 208.582031 121.347656 C 208.4375 121.332031 208.300781 121.269531 208.199219 121.183594 C 204.46875 118.015625 200.519531 115.785156 196.367188 114.507812 C 192.210938 113.230469 187.824219 112.90625 183.210938 113.523438 C 182.824219 113.574219 182.464844 113.300781 182.414062 112.90625 C 182.398438 112.769531 182.414062 112.640625 182.472656 112.519531 Z M 182.472656 112.519531 " fill-opacity="1" fill-rule="evenodd"/></g><path fill="#2d323c" d="M 249.746094 114.902344 C 248.976562 114.507812 248.675781 113.566406 249.070312 112.804688 C 249.460938 112.03125 250.402344 111.734375 251.164062 112.117188 C 252.445312 112.777344 253.582031 113.652344 254.53125 114.6875 C 255.480469 115.726562 256.242188 116.941406 256.78125 118.28125 C 257.105469 119.085938 256.710938 119.992188 255.917969 120.320312 C 255.113281 120.644531 254.207031 120.25 253.882812 119.445312 C 253.488281 118.46875 252.925781 117.578125 252.214844 116.796875 C 251.503906 116.027344 250.675781 115.375 249.746094 114.894531 Z M 249.746094 114.902344 " fill-opacity="1" fill-rule="evenodd"/><g clip-path="url(#6a142e53cc)"><path fill="#2d323c" d="M 251.019531 109.941406 C 250.25 109.539062 249.949219 108.597656 250.351562 107.824219 C 250.753906 107.054688 251.695312 106.753906 252.464844 107.15625 C 254.890625 108.425781 257.046875 110.128906 258.832031 112.167969 C 260.609375 114.199219 262.019531 116.566406 262.960938 119.144531 C 263.25 119.960938 262.832031 120.859375 262.027344 121.152344 C 261.21875 121.441406 260.320312 121.023438 260.027344 120.207031 C 259.214844 117.996094 258.011719 115.964844 256.480469 114.226562 C 254.960938 112.488281 253.113281 111.03125 251.019531 109.933594 Z M 251.019531 109.941406 " fill-opacity="1" fill-rule="evenodd"/></g><path fill="#2d323c" d="M 140.996094 162.359375 C 142.886719 170.277344 147.238281 173.226562 154.023438 171.210938 C 161.050781 168.238281 156.699219 159.625 157.742188 153.078125 C 158.625 147.519531 165.847656 137.742188 160.1875 136.148438 C 148.921875 132.984375 139.859375 151.777344 140.996094 162.359375 Z M 154.09375 148.476562 C 154.09375 150.269531 152.929688 151.726562 151.492188 151.726562 C 150.058594 151.726562 148.894531 150.269531 148.894531 148.476562 C 148.894531 146.6875 150.058594 145.230469 151.492188 145.230469 C 152.929688 145.230469 154.09375 146.6875 154.09375 148.476562 Z M 154.09375 148.476562 " fill-opacity="1" fill-rule="evenodd"/><path fill="#2d323c" d="M 182.800781 151.5625 C 183.011719 151.375 183.242188 151.203125 183.484375 151.039062 C 185.75 149.1875 186.878906 147.0625 186.210938 145.351562 C 185.132812 142.554688 179.730469 141.921875 174.148438 143.917969 C 168.566406 145.914062 164.90625 149.796875 165.984375 152.582031 C 166.632812 154.261719 168.855469 155.160156 171.738281 155.179688 C 180.105469 155.453125 182.867188 172.121094 168.8125 169.128906 C 168.316406 169.171875 167.933594 169.574219 167.925781 170.082031 C 167.914062 170.578125 168.285156 171.007812 168.78125 171.058594 C 178.722656 174.898438 189.964844 170.707031 194.972656 161.28125 C 195.023438 160.953125 194.863281 160.636719 194.570312 160.492188 C 194.28125 160.347656 193.929688 160.40625 193.699219 160.636719 C 184.621094 172.199219 175.960938 157.476562 182.800781 151.570312 Z M 182.800781 151.5625 " fill-opacity="1" fill-rule="evenodd"/><path fill="#2d323c" d="M 183.664062 135.316406 C 184.714844 136.0625 185.894531 136.722656 186.917969 137.296875 C 187.644531 137.699219 188.296875 138.066406 188.714844 138.359375 C 189.910156 139.1875 191.007812 140.039062 191.988281 140.894531 C 192.972656 141.75 193.84375 142.625 194.605469 143.523438 C 195.632812 144.714844 196.28125 145.820312 196.878906 146.851562 C 198.085938 148.90625 199.109375 150.671875 202.359375 152.292969 C 204.425781 153.320312 206.332031 153.484375 207.933594 152.96875 C 209.25 152.546875 210.34375 151.683594 211.148438 150.492188 C 211.925781 149.335938 212.421875 147.859375 212.558594 146.199219 C 212.824219 142.976562 211.769531 138.992188 208.855469 135.109375 C 207.597656 133.4375 206.1875 132 204.617188 130.800781 C 203.042969 129.601562 201.316406 128.632812 199.425781 127.894531 C 198.058594 127.363281 196.09375 126.902344 193.957031 126.652344 C 192.089844 126.4375 190.082031 126.378906 188.21875 126.582031 C 186.339844 126.789062 184.347656 127.398438 182.945312 128.324219 C 182.15625 128.835938 181.542969 129.460938 181.21875 130.183594 C 180.859375 130.960938 180.832031 131.820312 181.261719 132.734375 C 181.644531 133.558594 182.40625 134.425781 183.652344 135.308594 Z M 198.308594 133.394531 C 198.734375 134.433594 198.613281 135.546875 197.90625 136.257812 C 196.886719 137.277344 195.042969 137.070312 193.777344 135.804688 C 192.679688 134.714844 192.382812 133.183594 192.972656 132.128906 C 193.066406 131.957031 193.175781 131.800781 193.324219 131.664062 C 194.339844 130.644531 196.1875 130.851562 197.453125 132.121094 C 197.835938 132.503906 198.117188 132.941406 198.308594 133.394531 Z M 198.308594 133.394531 " fill-opacity="1" fill-rule="evenodd"/><g clip-path="url(#1627cd8af0)"><path fill="#2d323c" d="M 253.863281 182.773438 L 231.167969 182.773438 C 240.71875 169.351562 250.34375 149.136719 252.367188 134.082031 C 253.386719 127.082031 250.582031 120.070312 245.027344 115.699219 C 229.792969 103.738281 213.148438 118.613281 222.953125 133.457031 C 227.261719 139.976562 235.664062 142.394531 242.761719 139.144531 C 240.050781 141.65625 236.417969 142.941406 232.734375 142.703125 C 229.046875 142.460938 225.621094 140.707031 223.25 137.859375 C 224.628906 151.992188 215.199219 172.230469 204.523438 182.773438 L 115.667969 182.773438 C 114.570312 182.773438 113.675781 183.671875 113.675781 184.769531 L 113.675781 186.363281 C 113.675781 187.460938 114.570312 188.359375 115.667969 188.359375 L 253.855469 188.359375 C 254.949219 188.359375 255.847656 187.460938 255.847656 186.363281 L 255.847656 184.769531 C 255.847656 183.671875 254.949219 182.773438 253.855469 182.773438 Z M 253.863281 182.773438 " fill-opacity="1" fill-rule="evenodd"/></g><g clip-path="url(#8008f5a695)"><path stroke-linecap="butt" transform="matrix(0.854874, 0, 0, 0.856933, 113.648551, 100.643981)" fill="none" stroke-linejoin="miter" d="M 164.018083 95.84111 L 137.469934 95.84111 C 148.64209 80.17843 159.901064 56.588683 162.268007 39.02059 C 163.460618 30.851928 160.179797 22.669591 153.682126 17.568735 C 135.861509 3.610899 116.391342 20.969305 127.860509 38.291245 C 132.900545 45.899223 142.7293 48.720876 151.03188 44.928283 C 147.860724 47.859337 143.611192 49.359053 139.302259 49.08099 C 134.988755 48.798369 130.981401 46.751645 128.207782 43.428568 C 129.820777 59.920878 118.790272 83.537975 106.302132 95.84111 L 2.362242 95.84111 C 1.078243 95.84111 0.0318534 96.889543 0.0318534 98.170455 L 0.0318534 100.030285 C 0.0318534 101.311196 1.078243 102.35963 2.362242 102.35963 L 164.008945 102.35963 C 165.288373 102.35963 166.339333 101.311196 166.339333 100.030285 L 166.339333 98.170455 C 166.339333 96.889543 165.288373 95.84111 164.008945 95.84111 Z M 164.018083 95.84111 " stroke="#373435" stroke-width="0.09" stroke-opacity="1" stroke-miterlimit="2.613"/></g><g fill="#2d323c" fill-opacity="1"><g transform="translate(113.711272, 232.390326)"><g><path d="M 23.070312 -10.351562 C 28.917969 -14.738281 27.777344 -24.679688 23.128906 -27.777344 C 17.28125 -31.726562 4.941406 -29.941406 2.398438 -27.457031 C 1.460938 -23.917969 1.578125 -7.542969 2.074219 -4.941406 C 3.363281 1.667969 10.03125 2.308594 12.457031 -0.351562 C 12.777344 -3.507812 12.75 -8.039062 12.75 -8.539062 C 12.75 -8.566406 12.777344 -8.597656 12.777344 -8.597656 C 12.835938 -8.625 12.867188 -8.625 12.894531 -8.65625 C 12.925781 -8.65625 12.925781 -8.65625 12.953125 -8.65625 C 13.390625 -8.363281 18.625 -7.046875 23.070312 -10.351562 Z M 17.25 -18.65625 C 17.25 -17.484375 16.84375 -16.871094 15.964844 -16.726562 C 15.234375 -16.578125 14.503906 -16.609375 13.773438 -16.609375 C 13.65625 -16.609375 13.449219 -16.84375 13.449219 -16.960938 C 13.421875 -17.984375 13.421875 -18.800781 13.421875 -20.03125 C 15.351562 -21.199219 17.25 -19.855469 17.25 -18.65625 Z M 17.25 -18.65625 "/></g></g></g><g fill="#2d323c" fill-opacity="1"><g transform="translate(142.068528, 232.390326)"><g><path d="M 0.4375 -8.832031 C -0.820312 -2.191406 2.660156 2.398438 9.855469 -0.234375 C 10.261719 -1.753906 10.730469 -3.214844 11.226562 -4.445312 C 13.097656 -4.386719 15.144531 -4.503906 16.988281 -4.414062 C 19.296875 3.597656 28.214844 -0.0273438 28.625 -3.214844 C 27.515625 -9.355469 24.472656 -19.648438 22.894531 -23.507812 C 19.5625 -31.636719 10.847656 -29.796875 6.84375 -28.480469 C 4.972656 -24.824219 1.578125 -14.707031 0.4375 -8.832031 Z M 12.367188 -12.808594 C 12.925781 -15.203125 13.480469 -17.484375 14.007812 -19.796875 C 14.09375 -19.796875 14.179688 -19.796875 14.269531 -19.824219 C 14.824219 -17.484375 15.410156 -15.175781 15.964844 -12.808594 C 14.765625 -12.808594 13.625 -12.808594 12.367188 -12.808594 Z M 12.367188 -12.808594 "/></g></g></g><g fill="#2d323c" fill-opacity="1"><g transform="translate(171.098182, 232.390326)"><g><path d="M 28.214844 -15.320312 C 28.214844 -21.609375 25.996094 -25.613281 21.285156 -28.101562 C 17.425781 -30.144531 6.929688 -30.671875 2.074219 -27.808594 C 1.578125 -19.007812 1.550781 -11.667969 1.988281 -6.902344 C 2.484375 -1.285156 5.847656 0.613281 12.867188 0.613281 C 25.554688 0.613281 28.214844 -9.972656 28.214844 -15.320312 Z M 13.566406 -7.574219 C 13.128906 -7.574219 12.222656 -7.71875 12.191406 -8.625 C 12.132812 -11.929688 12.191406 -19.972656 12.191406 -21.8125 C 14.53125 -22.25 18.273438 -21.226562 18.246094 -15.496094 C 18.246094 -9.5625 15.820312 -7.632812 13.566406 -7.574219 Z M 13.566406 -7.574219 "/></g></g></g><g fill="#2d323c" fill-opacity="1"><g transform="translate(200.303239, 232.390326)"><g><path d="M 29.855469 -9.941406 C 30.789062 -18.097656 30.4375 -19.53125 30.058594 -23.539062 C 29.414062 -30.703125 20.789062 -29.882812 18.507812 -27.542969 C 19.355469 -23.128906 19.035156 -13.390625 18.332031 -9.882812 C 17.71875 -6.667969 14.179688 -7.191406 13.742188 -9.765625 C 13.042969 -13.976562 13.332031 -23.917969 13.15625 -25.4375 C 12.457031 -30.761719 3.742188 -29.707031 2.457031 -28.273438 C 1.636719 -22.222656 1.109375 -15.144531 1.871094 -9.824219 C 3.15625 -0.378906 10.03125 0.789062 16.140625 0.789062 C 22.222656 0.789062 28.976562 -2.484375 29.855469 -9.941406 Z M 29.855469 -9.941406 "/></g></g></g><g fill="#2d323c" fill-opacity="1"><g transform="translate(232.25632, 232.390326)"><g><path d="M 0.4375 -8.832031 C -0.820312 -2.191406 2.660156 2.398438 9.855469 -0.234375 C 10.261719 -1.753906 10.730469 -3.214844 11.226562 -4.445312 C 13.097656 -4.386719 15.144531 -4.503906 16.988281 -4.414062 C 19.296875 3.597656 28.214844 -0.0273438 28.625 -3.214844 C 27.515625 -9.355469 24.472656 -19.648438 22.894531 -23.507812 C 19.5625 -31.636719 10.847656 -29.796875 6.84375 -28.480469 C 4.972656 -24.824219 1.578125 -14.707031 0.4375 -8.832031 Z M 12.367188 -12.808594 C 12.925781 -15.203125 13.480469 -17.484375 14.007812 -19.796875 C 14.09375 -19.796875 14.179688 -19.796875 14.269531 -19.824219 C 14.824219 -17.484375 15.410156 -15.175781 15.964844 -12.808594 C 14.765625 -12.808594 13.625 -12.808594 12.367188 -12.808594 Z M 12.367188 -12.808594 "/></g></g></g><g fill="#2d323c" fill-opacity="1"><g transform="translate(98.00565, 265.804876)"><g><path d="M 8.457031 -8.78125 C 10.144531 -8.09375 12.445312 -9.378906 11.808594 -11.847656 C 9.042969 -13.445312 6.429688 -13.445312 4.273438 -12.390625 C 2.664062 -11.613281 1.46875 -10.484375 0.894531 -8.78125 C 0.390625 -7.261719 0.351562 -5.46875 0.871094 -3.988281 C 1.480469 -2.207031 2.976562 0.183594 7.210938 0.183594 C 12.09375 0.183594 13.171875 -3.234375 13.066406 -4.910156 C 12.9375 -7.171875 9.445312 -7.300781 8.832031 -6.46875 C 8.808594 -5.46875 8.78125 -4.144531 7.367188 -4.144531 C 6.441406 -4.128906 5.597656 -4.78125 5.46875 -5.960938 C 5.324219 -6.949219 5.519531 -7.9375 6.429688 -8.496094 C 7.117188 -8.9375 7.675781 -8.976562 8.457031 -8.78125 Z M 8.457031 -8.78125 "/></g></g></g><g fill="#2d323c" fill-opacity="1"><g transform="translate(119.090578, 265.804876)"><g><path d="M 5.339844 -10.445312 C 4.859375 -13.5625 1.949219 -13.5625 0.742188 -12.496094 C 0.324219 -10.910156 0.46875 -3.742188 0.6875 -2.585938 C 1.261719 0.335938 4.105469 0.765625 5.195312 -0.414062 C 5.496094 -2.597656 5.574219 -8.886719 5.339844 -10.445312 Z M 5.339844 -10.445312 "/></g></g></g><g fill="#2d323c" fill-opacity="1"><g transform="translate(132.878273, 265.804876)"><g><path d="M 7.183594 -13.25 C 3.609375 -13.238281 1.882812 -11.289062 1.066406 -9.457031 C 0.453125 -8.117188 0.351562 -6.195312 0.742188 -4.519531 C 1.144531 -2.742188 2.089844 -1.351562 3.742188 -0.507812 C 5.46875 0.390625 7.300781 0.53125 9.171875 0.078125 C 11.484375 -0.46875 13.003906 -1.898438 13.703125 -4.15625 C 14.222656 -5.871094 14.082031 -7.558594 13.46875 -9.222656 C 13.082031 -10.25 11.613281 -13.277344 7.183594 -13.25 Z M 7.25 -8.597656 C 8.171875 -8.597656 9.003906 -7.753906 8.910156 -6.289062 C 8.832031 -4.820312 7.988281 -4.285156 7.300781 -4.246094 C 6.625 -4.195312 5.625 -4.726562 5.535156 -6.234375 C 5.429688 -7.78125 6.289062 -8.597656 7.25 -8.597656 Z M 7.25 -8.597656 "/></g></g></g><g fill="#2d323c" fill-opacity="1"><g transform="translate(169.127232, 265.804876)"><g><path d="M 0.195312 -3.921875 C -0.363281 -0.972656 1.183594 1.066406 4.378906 -0.105469 C 4.558594 -0.78125 4.765625 -1.429688 4.988281 -1.972656 C 5.820312 -1.949219 6.730469 -2 7.546875 -1.960938 C 8.574219 1.597656 12.535156 -0.0117188 12.71875 -1.429688 C 12.222656 -4.15625 10.871094 -8.730469 10.171875 -10.445312 C 8.691406 -14.054688 4.820312 -13.238281 3.039062 -12.652344 C 2.207031 -11.027344 0.703125 -6.535156 0.195312 -3.921875 Z M 5.496094 -5.691406 C 5.742188 -6.753906 5.988281 -7.769531 6.222656 -8.792969 C 6.261719 -8.792969 6.300781 -8.792969 6.339844 -8.808594 C 6.585938 -7.769531 6.847656 -6.742188 7.09375 -5.691406 C 6.558594 -5.691406 6.054688 -5.691406 5.496094 -5.691406 Z M 5.496094 -5.691406 "/></g></g></g><g fill="#2d323c" fill-opacity="1"><g transform="translate(189.601889, 265.804876)"><g><path d="M 8.46875 -7.300781 C 8.457031 -7.289062 8.429688 -7.289062 8.417969 -7.273438 C 8.367188 -7.367188 8.300781 -7.457031 8.25 -7.558594 C 7.3125 -9.210938 6.871094 -10.042969 5.976562 -11.5625 C 4.742188 -13.652344 2.050781 -13.300781 0.820312 -12.25 C 0.664062 -10.714844 0.703125 -5.027344 0.804688 -1.820312 C 0.855469 -0.261719 3.390625 1.167969 5.519531 -0.570312 C 5.558594 -2.429688 5.441406 -3.300781 5.402344 -4.859375 C 5.429688 -4.859375 5.46875 -4.871094 5.496094 -4.871094 C 5.546875 -4.792969 5.613281 -4.726562 5.652344 -4.652344 C 5.949219 -4.183594 6.847656 -2.441406 7.574219 -1.441406 C 9.171875 0.726562 11.976562 0.480469 13.09375 -0.636719 C 13.289062 -3.261719 13.171875 -9.234375 13.171875 -10.820312 C 13.171875 -13.015625 10.054688 -14.082031 8.46875 -12.160156 C 8.46875 -10.367188 8.46875 -9.054688 8.46875 -7.300781 Z M 8.46875 -7.300781 "/></g></g></g><g fill="#2d323c" fill-opacity="1"><g transform="translate(211.193204, 265.804876)"><g><path d="M 12.535156 -6.808594 C 12.535156 -9.597656 11.546875 -11.378906 9.457031 -12.484375 C 7.742188 -13.394531 3.078125 -13.625 0.921875 -12.351562 C 0.703125 -8.445312 0.6875 -5.183594 0.882812 -3.066406 C 1.105469 -0.570312 2.597656 0.273438 5.714844 0.273438 C 11.351562 0.273438 12.535156 -4.429688 12.535156 -6.808594 Z M 6.027344 -3.363281 C 5.832031 -3.363281 5.429688 -3.429688 5.417969 -3.832031 C 5.390625 -5.300781 5.417969 -8.871094 5.417969 -9.691406 C 6.457031 -9.886719 8.117188 -9.429688 8.105469 -6.882812 C 8.105469 -4.246094 7.027344 -3.390625 6.027344 -3.363281 Z M 6.027344 -3.363281 "/></g></g></g><g fill="#2d323c" fill-opacity="1"><g transform="translate(231.745762, 265.804876)"><g><path d="M 10.144531 -4.832031 C 10.25 -4.882812 10.339844 -4.9375 10.417969 -5 C 13.367188 -7.171875 12.121094 -10.871094 10.054688 -12.261719 C 7.441406 -14.003906 1.972656 -13.210938 0.84375 -12.105469 C 0.414062 -10.535156 0.570312 -3.675781 0.792969 -2.519531 C 1.351562 0.414062 4.207031 0.832031 5.285156 -0.351562 C 5.378906 -0.988281 5.457031 -2.144531 5.507812 -3.207031 C 5.519531 -3.480469 5.535156 -3.753906 5.535156 -3.988281 C 5.558594 -3.988281 5.597656 -4 5.625 -4.015625 C 5.691406 -3.921875 5.765625 -3.820312 5.832031 -3.714844 C 6.625 -2.46875 7 -1.898438 7.328125 -1.375 C 8.859375 1.117188 11.9375 0.765625 12.351562 -1.492188 C 12.066406 -2.273438 10.753906 -4.261719 10.144531 -4.832031 Z M 7.441406 -8.15625 C 7.441406 -7.792969 7.261719 -7.546875 6.859375 -7.480469 C 6.546875 -7.417969 6.222656 -7.429688 5.898438 -7.429688 C 5.84375 -7.429688 5.742188 -7.535156 5.742188 -7.585938 C 5.730469 -8.039062 5.742188 -8.25 5.742188 -8.792969 C 6.730469 -9.25 7.441406 -8.78125 7.441406 -8.15625 Z M 7.441406 -8.15625 "/></g></g></g><g fill="#2d323c" fill-opacity="1"><g transform="translate(252.272353, 265.804876)"><g><path d="M 0.714844 -3 C 0.820312 -1.234375 1.351562 -0.363281 2.570312 -0.0507812 C 3.507812 0.167969 6.898438 0.144531 7.976562 0 C 10.445312 -0.324219 10.78125 -2.570312 9.792969 -3.960938 C 8.40625 -3.960938 7.015625 -3.960938 5.625 -3.960938 C 5.519531 -3.960938 5.417969 -3.960938 5.324219 -3.960938 C 5.324219 -4.234375 5.324219 -4.46875 5.324219 -4.753906 C 6.535156 -4.753906 6.921875 -4.726562 7.585938 -4.753906 C 9.496094 -4.84375 10.09375 -6.351562 9.3125 -8.078125 C 8.210938 -8.429688 6.066406 -8.289062 5.3125 -8.289062 C 5.3125 -8.546875 5.3125 -8.753906 5.3125 -8.964844 C 6.988281 -8.964844 7.289062 -8.964844 7.988281 -8.964844 C 11.121094 -8.964844 10.78125 -12.183594 10.300781 -12.875 C 7.988281 -13.054688 3.089844 -13.105469 0.921875 -12.886719 C 0.664062 -10.691406 0.609375 -4.78125 0.714844 -3 Z M 0.714844 -3 "/></g></g></g><g fill="#2d323c" fill-opacity="1"><g transform="translate(270.786364, 265.804876)"><g><path d="M 5.339844 -10.445312 C 4.859375 -13.5625 1.949219 -13.5625 0.742188 -12.496094 C 0.324219 -10.910156 0.46875 -3.742188 0.6875 -2.585938 C 1.261719 0.335938 4.105469 0.765625 5.195312 -0.414062 C 5.496094 -2.597656 5.574219 -8.886719 5.339844 -10.445312 Z M 5.339844 -10.445312 "/></g></g></g></svg>